<svg xmlns="http://www.w3.org/2000/svg" xmlns:xlink="http://www.w3.org/1999/xlink" version="1.1" id="Layer_1" x="0px" y="0px" viewBox="0 0 157.8 115.2" style="enable-background:new 0 0 157.8 115.2;" xml:space="preserve"><g><path class="st0" d="M23.7,17.4l2.9,12.5h9.2c-4.5,20.6-12.9,59.4-12.9,59.4C22,93,20.5,97,17.5,99.5c-3.6,3-9.3,2.3-13.5,1.2 l-3.5,12c0.8,0.2,10.6,2.9,19.3,1.1c5-1.1,9.7-4.5,11.9-7.7c2.7-3.8,4.2-10.2,5.4-14.7c1-3.7,15.8-74.1,15.8-74.1H23.7L23.7,17.4z"/><path class="st0" d="M137.8,78.5c-2,0.8-3.9,1.4-5.4,1.6c-4.5,0.5-7.9-2.6-5.3-13.8c2.9-12.5,8.3-36.4,8.3-36.4l18.9,0l2.9-12.5 l-19,0l3.9-16.9h-13.8c-0.6,2.5-13.7,57.9-14.9,63.7c-1.6,7.6-4,16.2,1.4,23c3.3,4.1,8.2,5.3,13.3,5.3c4,0,7.5-0.5,10.4-1.8 c-1.4-1.8-2.3-4.1-2.3-6.6C136.2,82,136.8,80.1,137.8,78.5L137.8,78.5z"/><path class="st1" d="M146.9,76.5c-1.6,0-3.1,0.5-4.3,1.4c-1.9,1.4-3.2,3.6-3.2,6.2c0,1.9,0.7,3.6,1.8,4.9c1.4,1.6,3.4,2.6,5.7,2.6 c4.1,0,7.5-3.4,7.5-7.5C154.5,79.9,151.1,76.5,146.9,76.5L146.9,76.5z"/><path class="st0" d="M67.1,61H70c14.2,0,35.7-2.3,41.6-17.8c2.8-7.2,2.2-16-3.8-21.4c-4.8-4.3-12.1-5.9-18.4-5.6 c-20.6,0.7-34.2,18.7-37.5,35.9c-2,10.6-2.2,22.5,4.6,31.6c5.3,7.1,14,9,23.1,9C90.9,92.5,100,89,100,89l3-13.8 c0,0-9.8,5.5-20.9,5.6c-8.7,0.1-14.2-4.9-15-12.7C66.8,65.3,67.1,61,67.1,61L67.1,61z M89.1,28L89.1,28c2.8,0,5,0.6,6.4,1.9 c1.4,1.3,2.1,3,2.1,5.3c0,4.3-2.4,7.7-7.1,10.1c-4.8,2.4-11.4,3.6-19.8,3.6h-2C71.7,33.7,83.2,28,89.1,28L89.1,28z"/></g></svg>